<?xml version="1.0" encoding="UTF-8" standalone="no"?>
<!DOCTYPE svg PUBLIC "-//W3C//DTD SVG 1.1//EN" "http://www.w3.org/Graphics/SVG/1.1/DTD/svg11.dtd">
<svg width="100%" height="100%" viewBox="0 0 918 263" version="1.1" xmlns="http://www.w3.org/2000/svg" xmlns:xlink="http://www.w3.org/1999/xlink" xml:space="preserve" xmlns:serif="http://www.serif.com/" style="fill-rule:evenodd;clip-rule:evenodd;stroke-linejoin:round;stroke-miterlimit:2;">
    <g transform="matrix(1,0,0,1,-10,-67.794)">
        <g transform="matrix(0.590334,0,0,0.590334,-49.364,56.2064)">
            <path d="M322.413,259.05C326.091,262.36 330.646,287.663 331.108,293.144C331.521,297.631 331.467,302.148 330.949,306.623C327.976,332.136 314.082,346.8 295.099,361.877L294.219,362.012C293.02,360.87 292.235,357.656 291.71,355.922C288.327,344.734 285.64,333.747 286.495,321.955C288.376,296.003 303.151,275.494 322.413,259.05Z" style="fill:rgb(242,175,13);fill-rule:nonzero;"/>
            <path d="M264.97,303.923C266.324,303.625 266.528,303.473 267.72,304.009C267.99,307.467 261.065,329.224 259.588,332.883C248.736,359.758 224.599,374.369 196.882,380.335C196.181,380.55 195.478,380.761 194.775,380.969L194.439,380.522C194.081,356.27 207.693,327.364 229.259,315.36C238.933,309.975 253.926,305.83 264.97,303.923Z" style="fill:rgb(242,175,13);fill-rule:nonzero;"/>
            <path d="M345.168,252.462C346.854,252.752 353.216,255.03 355.021,255.749C368.901,261.28 380.032,268.394 389.705,279.835C402.969,295.524 408.228,317.561 406.446,337.777C384.46,332.918 359.241,314.93 351.445,293.352C347.63,282.792 342.836,263.653 345.168,252.462Z" style="fill:rgb(242,175,13);fill-rule:nonzero;"/>
            <path d="M297.448,99.351C306.128,104.503 320.962,123.464 325.405,132.728C336.237,155.315 329.825,181.527 322.003,204.035L321.517,204.515L320.516,204.369C311.763,197.991 298.784,178.265 294.472,168.243C284.585,145.262 288.885,121.714 297.448,99.351Z" style="fill:rgb(242,175,13);fill-rule:nonzero;"/>
            <path d="M228.743,171.661C235.982,169.849 254.244,173.025 261.615,175.622C284.743,183.773 293.498,198.769 303.489,219.947C298.487,221.449 294.196,221.751 289.044,222.428C250.439,223.222 230.153,207.705 213.402,174.378C218.772,173.259 223.279,172.303 228.743,171.661Z" style="fill:rgb(242,175,13);fill-rule:nonzero;"/>
            <path d="M394.402,125.375C394.69,125.396 395.132,125.597 395.432,125.709C395.949,128.441 395.856,130.8 396.018,133.468C398.786,179.036 382.187,194.91 343.655,213.569L343.197,213.475C339.69,208.48 346.284,175.271 348.625,168.693C356.579,146.345 373.998,134.926 394.402,125.375Z" style="fill:rgb(242,175,13);fill-rule:nonzero;"/>
            <path d="M274.862,241.016C282.025,239.948 297.473,241.892 304.297,243.596C292.505,268.373 275.55,286.543 246.934,289.667C235.501,290.389 227.009,289.879 215.895,287.502C228.064,260.043 244.811,244.634 274.862,241.016Z" style="fill:rgb(242,175,13);fill-rule:nonzero;"/>
            <path d="M200.188,83.645C210.214,84.25 224.802,89.817 233.108,95.314C252.157,107.919 260.208,123.049 264.244,145.171C265.176,150.277 265.791,156.581 266.771,161.377C253.412,157.732 234.03,148.455 224.278,138.933C210.603,125.579 200.475,102.754 200.188,83.645Z" style="fill:rgb(242,175,13);fill-rule:nonzero;"/>
            <path d="M395.639,209.31C398.367,209.116 401.914,209.286 404.67,209.432C421.954,210.178 438.225,217.792 449.87,230.584C439.114,239.551 424.179,246.018 410.253,247.807C392.925,251.785 370.314,244.067 356.283,233.92C357.178,232.573 358.151,231.28 359.197,230.048C369.469,218.011 379.838,210.603 395.639,209.31Z" style="fill:rgb(242,175,13);fill-rule:nonzero;"/>
            <path d="M484.411,143.413C488.769,143.01 493.729,143.644 498.097,144.137C493.97,155.788 486.089,169.813 477.181,178.296C461.095,193.615 444.167,195.794 423.257,195.579C418.549,195.16 413.589,194.827 408.973,193.905C425.663,165.473 451.062,146.045 484.411,143.413Z" style="fill:rgb(242,175,13);fill-rule:nonzero;"/>
            <path d="M376.784,36.973C377.251,37.065 377.638,37.034 377.807,37.311C384.241,47.859 387.614,64.354 386.989,76.059C385.532,103.382 373.831,114.399 355.373,131.179L351.06,134.98C346.843,123.723 345.585,107.813 346.569,95.905C348.309,72.999 359.199,51.757 376.784,36.973Z" style="fill:rgb(242,175,13);fill-rule:nonzero;"/>
            <path d="M272.906,353.737L273.572,353.958C273.654,354.116 273.736,354.273 273.818,354.431C277.3,370.2 278.309,387.283 272.238,402.567C268.208,412.713 262.111,422.09 254.29,429.592C248.4,435.24 239.638,442.09 232.125,445.421L231.227,445.735L230.569,445.03C226.299,401.589 237.412,378.641 272.906,353.737Z" style="fill:rgb(242,175,13);fill-rule:nonzero;"/>
            <path d="M146.776,167.798C153.584,167.071 160.462,167.353 167.187,168.634C186.626,172.509 196.779,182.697 207.235,198.379C196.616,203.641 188.81,206.157 177.022,206.516C175.104,206.525 173.187,206.451 171.275,206.296C150.442,204.63 129.796,193.03 116.32,177.249C126.191,172.505 135.863,169.052 146.776,167.798Z" style="fill:rgb(242,175,13);fill-rule:nonzero;"/>
            <path d="M185.632,303.979C189.373,304.047 193.115,304.07 196.857,304.047C194.878,312.463 187.811,326.667 182.37,333.353C168.509,350.385 154.527,355.332 133.627,357.766C128.61,358.018 125.688,357.811 120.776,357.054C130.198,327.491 154.199,306.083 185.632,303.979Z" style="fill:rgb(242,175,13);fill-rule:nonzero;"/>
            <path d="M460.717,84.855L461.697,84.967C463.92,89.753 458.708,113.124 455.926,118.92C446.033,139.533 432.153,148.579 411.552,156.576C411.263,155.961 411.14,155.697 411.023,155.014C406.458,128.353 413.307,106.953 438.313,93.811C444.609,90.502 454.021,86.145 460.717,84.855Z" style="fill:rgb(242,175,13);fill-rule:nonzero;"/>
            <path d="M591.221,191.984C608.206,189.844 627.915,196.476 641.677,206.374C628.789,216.102 616.071,221.196 600.065,223.845C599.298,223.949 598.529,224.041 597.758,224.121C578.402,226.111 564.275,222.38 549.163,210.095C562.226,197.326 573.482,193.489 591.221,191.984Z" style="fill:rgb(242,175,13);fill-rule:nonzero;"/>
            <path d="M473.266,247.394C498.378,246.619 517.398,265.533 527.432,286.907C519.871,288.528 512.134,289.179 504.407,288.844C480.117,286.546 458.919,277.169 448.82,253.844C455.939,250.74 465.571,248.783 473.266,247.394Z" style="fill:rgb(242,175,13);fill-rule:nonzero;"/>
            <path d="M541.731,237.574C543.708,237.14 554.895,237.247 556.985,237.462C575.985,239.416 593.611,251.839 605.531,266.111C599.861,268.87 590.152,271.3 583.941,271.952C556.73,274.969 533.9,266.503 519.153,242.906C528.646,239.809 531.879,238.849 541.731,237.574Z" style="fill:rgb(242,175,13);fill-rule:nonzero;"/>
            <path d="M317.527,19.629C317.585,19.663 317.644,19.697 317.702,19.73C335.921,37.734 342.983,66.648 330.825,90.016C327.866,95.704 325.558,98.916 322.694,103.347C322.455,103.244 321.708,102.921 321.516,102.754C293.829,78.803 300.476,47.046 317.527,19.629Z" style="fill:rgb(242,175,13);fill-rule:nonzero;"/>
            <path d="M412.61,267.775C446.229,266.463 462.566,288.081 470.681,318.504C468.413,318.628 466.111,318.613 463.837,318.626C451.084,316.307 447.012,316.534 434.292,310.183C417.762,301.93 410.572,285.647 405.19,268.684L412.61,267.775Z" style="fill:rgb(242,175,13);fill-rule:nonzero;"/>
            <path d="M140.02,220.122C156.211,218.139 169.715,224.138 182.979,232.778C169.703,243.627 162,250.344 144.84,253.602C125.893,254.086 117.138,251.148 101.509,239.438C114.831,227.247 122.754,223.38 140.02,220.122Z" style="fill:rgb(242,175,13);fill-rule:nonzero;"/>
            <path d="M213.58,394.909C216.443,395.875 213.118,416.11 212.41,418.69C206.114,441.626 187.372,456.067 166.704,463.794L165.892,463.633C165.137,461.893 165.757,459.255 165.78,457.326C165.891,448.053 167.167,440.063 170.85,431.536C179.477,411.566 194.107,402.631 213.58,394.909Z" style="fill:rgb(242,175,13);fill-rule:nonzero;"/>
            <path d="M246.945,43.193C247.547,43.36 248.14,43.554 248.724,43.776C261.598,48.646 275.738,60.636 281.176,73.478C286.787,86.727 285.29,96.826 280.233,109.924C279.967,111.138 279.882,111.229 279.24,112.315C277.915,112.658 276.814,112.106 275.698,111.426C251.701,96.791 240.536,70.437 246.945,43.193Z" style="fill:rgb(242,175,13);fill-rule:nonzero;"/>
            <path d="M197.081,246.92C205.504,245.727 213.089,246.976 221.076,249.444C210.353,268.463 204.478,279.939 181.768,285.29C173.22,287.517 166.782,287.503 158.046,287.427C160.527,278.806 163.289,271.109 168.562,263.775C174.77,255.141 186.608,248.373 197.081,246.92Z" style="fill:rgb(242,175,13);fill-rule:nonzero;"/>
            <path d="M152.762,120.053C173.364,119.276 190.159,121.554 203.239,139.408C205.551,142.563 212.582,154.496 212.037,158.033C210.981,158.878 209.22,158.872 207.775,159.04C193.191,161.95 171.384,152.795 161.706,141.963C158.664,138.559 149.474,126.178 149.628,121.747C150.62,120.272 150.594,120.677 152.762,120.053Z" style="fill:rgb(242,175,13);fill-rule:nonzero;"/>
            <path d="M559.748,102.766C561.675,102.254 568.986,102.537 571.415,102.595C564.773,124.914 547.201,138.96 524.535,142.65C520.42,142.924 515.734,142.721 511.568,142.636C518.069,118.569 535.417,105.47 559.748,102.766Z" style="fill:rgb(242,175,13);fill-rule:nonzero;"/>
            <path d="M479.051,205.805C482.361,205.325 487.495,205.652 490.807,206.214C504.941,208.614 514.758,212.954 523.344,224.672C514.224,228.422 510.575,230.772 500.828,233.048C481.096,235.523 469.225,228.538 455.062,215.945C462.683,211.051 469.866,206.984 479.051,205.805Z" style="fill:rgb(242,175,13);fill-rule:nonzero;"/>
            <path d="M344.338,319.373C345.113,319.554 345.867,319.817 346.587,320.158C355.252,324.284 365.208,337.09 368.459,346.256C372.251,356.95 370.993,371.823 366.224,381.864L365.805,382.389L364.808,382.386C357.463,378.357 347.717,366.739 344.331,358.975C338.179,344.868 339.411,333.204 344.338,319.373Z" style="fill:rgb(242,175,13);fill-rule:nonzero;"/>
            <path d="M525.61,170.131C537.172,168.961 546.738,172.368 557.087,177.034C546.981,188.082 538.792,194.658 523.822,197.031C517.383,197.817 495.128,196.04 491.873,190.614C491.867,189.371 493.085,187.859 493.89,186.803C502.502,175.51 512.457,172.274 525.61,170.131Z" style="fill:rgb(242,175,13);fill-rule:nonzero;"/>
            <path d="M322.438,364.143C323.12,364.651 323.48,365.621 323.787,366.392C330.232,382.585 329.827,399.439 320.141,414.296C317.943,417.667 310.659,427.548 307.011,428.917C306.915,428.776 306.821,428.634 306.727,428.492C301.059,419.842 298.926,403.354 301.301,393.194C304.35,380.147 311.408,371.311 322.438,364.143Z" style="fill:rgb(242,175,13);fill-rule:nonzero;"/>
            <path d="M515.038,78.427L516.933,78.411C520.612,83.167 507.593,104.932 503.092,109.259C495.552,116.507 483.959,124.224 473.208,124.383C471.963,124.74 471.367,124.809 470.076,124.956L469.456,124.419C469.178,118.062 473.621,105.145 477.533,99.581C486.836,86.347 499.7,81.394 515.038,78.427Z" style="fill:rgb(242,175,13);fill-rule:nonzero;"/>
            <path d="M432.564,39.157L433.127,39.705C434.188,43.597 434.474,48.727 434.595,52.787C435.24,74.462 422.584,89.826 404.103,99.206C403.977,99.005 403.623,98.414 403.575,98.227C397.17,73.578 409.345,49.589 432.564,39.157Z" style="fill:rgb(242,175,13);fill-rule:nonzero;"/>
            <path d="M579.083,143.873C584.744,143.325 606.849,146.304 608.058,151.602C605.522,157.755 589.54,165.296 582.904,166.364C569.825,168.072 563.227,165.565 551.579,159.779C552.16,158.728 552.83,157.728 553.581,156.791C559.282,149.757 570.093,144.815 579.083,143.873Z" style="fill:rgb(242,175,13);fill-rule:nonzero;"/>
            <path d="M177.369,362.864L178.285,362.825L178.809,363.466C179.036,371.27 174.739,382.768 170.004,389.155C163.679,397.684 152.738,403.183 142.365,404.674C142.027,404.707 141.85,404.541 141.445,404.36C140.196,398.244 144.426,386.855 147.928,381.382C154.469,371.16 165.739,365.334 177.369,362.864Z" style="fill:rgb(242,175,13);fill-rule:nonzero;"/>
            <path d="M144.092,276.314C145.063,275.977 144.559,276.02 145.652,276.326C145.702,276.55 145.818,277.235 145.767,277.43C142.918,288.35 136.475,298.653 126.203,303.945C118.632,307.845 110.828,308.729 102.427,308.484C101.942,308.401 101.238,308.139 100.748,307.979C99.137,304.483 108.33,291.982 111.104,289.136C119.851,280.16 131.778,276.508 144.092,276.314Z" style="fill:rgb(242,175,13);fill-rule:nonzero;"/>
            <path d="M214.322,215.254C228.023,216.04 232.833,221.641 241.208,231.017C234.052,232.732 229.75,233.856 222.408,234.088C215.963,233.557 199.684,228.529 196.531,222.805C196.225,217.327 210.178,215.555 214.322,215.254Z" style="fill:rgb(242,175,13);fill-rule:nonzero;"/>
            <path d="M325.279,224.505C337.259,223.55 341.81,237.362 330.528,242.995C328.799,243.333 327.231,243.282 325.545,242.694C323.156,241.857 321.197,240.105 320.1,237.824C318.901,235.367 318.728,232.536 319.617,229.951C320.764,226.704 322.352,225.876 325.279,224.505Z" style="fill:rgb(242,175,13);fill-rule:nonzero;"/>
        </g>
        <g transform="matrix(1,0,0,1,-249.84,-143.04)">
            <path d="M442.64,431.84C442.64,426.293 443.84,421.347 446.24,417C448.64,412.653 451.987,409.267 456.28,406.84C460.573,404.413 465.44,403.2 470.88,403.2C477.547,403.2 483.253,404.96 488,408.48C492.747,412 495.92,416.8 497.52,422.88L482.48,422.88C481.36,420.533 479.773,418.747 477.72,417.52C475.667,416.293 473.333,415.68 470.72,415.68C466.507,415.68 463.093,417.147 460.48,420.08C457.867,423.013 456.56,426.933 456.56,431.84C456.56,436.747 457.867,440.667 460.48,443.6C463.093,446.533 466.507,448 470.72,448C473.333,448 475.667,447.387 477.72,446.16C479.773,444.933 481.36,443.147 482.48,440.8L497.52,440.8C495.92,446.88 492.747,451.667 488,455.16C483.253,458.653 477.547,460.4 470.88,460.4C465.44,460.4 460.573,459.187 456.28,456.76C451.987,454.333 448.64,450.96 446.24,446.64C443.84,442.32 442.64,437.387 442.64,431.84Z" style="fill:white;fill-rule:nonzero;"/>
            <path d="M545.28,460.56C540,460.56 535.16,459.333 530.76,456.88C526.36,454.427 522.867,451 520.28,446.6C517.693,442.2 516.4,437.253 516.4,431.76C516.4,426.267 517.693,421.333 520.28,416.96C522.867,412.587 526.36,409.173 530.76,406.72C535.16,404.267 540,403.04 545.28,403.04C550.56,403.04 555.4,404.267 559.8,406.72C564.2,409.173 567.667,412.587 570.2,416.96C572.733,421.333 574,426.267 574,431.76C574,437.253 572.72,442.2 570.16,446.6C567.6,451 564.133,454.427 559.76,456.88C555.387,459.333 550.56,460.56 545.28,460.56ZM545.28,448.08C549.76,448.08 553.347,446.587 556.04,443.6C558.733,440.613 560.08,436.667 560.08,431.76C560.08,426.8 558.733,422.84 556.04,419.88C553.347,416.92 549.76,415.44 545.28,415.44C540.747,415.44 537.133,416.907 534.44,419.84C531.747,422.773 530.4,426.747 530.4,431.76C530.4,436.72 531.747,440.68 534.44,443.64C537.133,446.6 540.747,448.08 545.28,448.08Z" style="fill:white;fill-rule:nonzero;"/>
            <path d="M631.68,421.6C630.667,419.733 629.213,418.307 627.32,417.32C625.427,416.333 623.2,415.84 620.64,415.84C616.213,415.84 612.667,417.293 610,420.2C607.333,423.107 606,426.987 606,431.84C606,437.013 607.4,441.053 610.2,443.96C613,446.867 616.853,448.32 621.76,448.32C625.12,448.32 627.96,447.467 630.28,445.76C632.6,444.053 634.293,441.6 635.36,438.4L618,438.4L618,428.32L647.76,428.32L647.76,441.04C646.747,444.453 645.027,447.627 642.6,450.56C640.173,453.493 637.093,455.867 633.36,457.68C629.627,459.493 625.413,460.4 620.72,460.4C615.173,460.4 610.227,459.187 605.88,456.76C601.533,454.333 598.147,450.96 595.72,446.64C593.293,442.32 592.08,437.387 592.08,431.84C592.08,426.293 593.293,421.347 595.72,417C598.147,412.653 601.52,409.267 605.84,406.84C610.16,404.413 615.093,403.2 620.64,403.2C627.36,403.2 633.027,404.827 637.64,408.08C642.253,411.333 645.307,415.84 646.8,421.6L631.68,421.6Z" style="fill:white;fill-rule:nonzero;"/>
            <path d="M718.4,460L704.72,460L681.84,425.36L681.84,460L668.16,460L668.16,403.84L681.84,403.84L704.72,438.64L704.72,403.84L718.4,403.84L718.4,460Z" style="fill:white;fill-rule:nonzero;"/>
            <rect x="741.12" y="403.84" width="13.68" height="56.16" style="fill:white;fill-rule:nonzero;"/>
            <path d="M814.08,403.84L814.08,414.8L791.2,414.8L791.2,426.64L808.32,426.64L808.32,437.28L791.2,437.28L791.2,460L777.52,460L777.52,403.84L814.08,403.84Z" style="fill:white;fill-rule:nonzero;"/>
            <rect x="834.08" y="403.84" width="13.68" height="56.16" style="fill:white;fill-rule:nonzero;"/>
            <path d="M868.16,431.84C868.16,426.293 869.36,421.347 871.76,417C874.16,412.653 877.507,409.267 881.8,406.84C886.093,404.413 890.96,403.2 896.4,403.2C903.067,403.2 908.773,404.96 913.52,408.48C918.267,412 921.44,416.8 923.04,422.88L908,422.88C906.88,420.533 905.293,418.747 903.24,417.52C901.187,416.293 898.853,415.68 896.24,415.68C892.027,415.68 888.613,417.147 886,420.08C883.387,423.013 882.08,426.933 882.08,431.84C882.08,436.747 883.387,440.667 886,443.6C888.613,446.533 892.027,448 896.24,448C898.853,448 901.187,447.387 903.24,446.16C905.293,444.933 906.88,443.147 908,440.8L923.04,440.8C921.44,446.88 918.267,451.667 913.52,455.16C908.773,458.653 903.067,460.4 896.4,460.4C890.96,460.4 886.093,459.187 881.8,456.76C877.507,454.333 874.16,450.96 871.76,446.64C869.36,442.32 868.16,437.387 868.16,431.84Z" style="fill:white;fill-rule:nonzero;"/>
            <path d="M979.2,450.08L958.24,450.08L954.88,460L940.56,460L960.88,403.84L976.72,403.84L997.04,460L982.56,460L979.2,450.08ZM975.68,439.52L968.72,418.96L961.84,439.52L975.68,439.52Z" style="fill:white;fill-rule:nonzero;"/>
        </g>
        <g transform="matrix(1,0,0,1,327.76,-143.84)">
            <path d="M478.4,445.6L451.76,445.6L446.4,460L442.48,460L463.12,405.12L467.12,405.12L487.68,460L483.76,460L478.4,445.6ZM477.28,442.56L465.12,409.84L452.88,442.56L477.28,442.56Z" style="fill:rgb(230,169,26);fill-rule:nonzero;"/>
            <path d="M543.52,419.68C543.52,424.64 541.973,428.493 538.88,431.24C535.787,433.987 531.2,435.36 525.12,435.36L513.12,435.36L513.12,460L509.52,460L509.52,403.84L525.12,403.84C531.307,403.84 535.92,405.267 538.96,408.12C542,410.973 543.52,414.827 543.52,419.68ZM525.12,432.16C534.987,432.16 539.92,428 539.92,419.68C539.92,415.573 538.747,412.44 536.4,410.28C534.053,408.12 530.293,407.04 525.12,407.04L513.12,407.04L513.12,432.16L525.12,432.16Z" style="fill:rgb(230,169,26);fill-rule:nonzero;"/>
            <path d="M600,419.68C600,424.64 598.453,428.493 595.36,431.24C592.267,433.987 587.68,435.36 581.6,435.36L569.6,435.36L569.6,460L566,460L566,403.84L581.6,403.84C587.787,403.84 592.4,405.267 595.44,408.12C598.48,410.973 600,414.827 600,419.68ZM581.6,432.16C591.467,432.16 596.4,428 596.4,419.68C596.4,415.573 595.227,412.44 592.88,410.28C590.533,408.12 586.773,407.04 581.6,407.04L569.6,407.04L569.6,432.16L581.6,432.16Z" style="fill:rgb(230,169,26);fill-rule:nonzero;"/>
        </g>
    </g>
</svg>
